<svg width="20" height="20" viewBox="0 0 20 20" fill="none" xmlns="http://www.w3.org/2000/svg">
<g id="052-linkedin" clip-path="url(#clip0_0_659)">
<path id="Vector" d="M19.9951 20.0008V20H20.0001V12.665C20.0001 9.07667 19.2276 6.3125 15.0326 6.3125C13.0159 6.3125 11.6626 7.41917 11.1101 8.46833H11.0517V6.6475H7.07422V20H11.2159V13.3883C11.2159 11.6475 11.5459 9.96417 13.7017 9.96417C15.8259 9.96417 15.8576 11.9508 15.8576 13.5V20.0008H19.9951Z" fill="#DF6951"/>
<path id="Vector_2" d="M0.330078 6.64844H4.47675V20.0009H0.330078V6.64844Z" fill="#DF6951"/>
<path id="Vector_3" d="M2.40167 0C1.07583 0 0 1.07583 0 2.40167C0 3.7275 1.07583 4.82583 2.40167 4.82583C3.7275 4.82583 4.80333 3.7275 4.80333 2.40167C4.8025 1.07583 3.72667 0 2.40167 0V0Z" fill="#DF6951"/>
</g>
<defs>
<clipPath id="clip0_0_659">
<rect width="20" height="20" fill="white"/>
</clipPath>
</defs>
</svg>
