<svg width="21" height="20" viewBox="0 0 21 20" fill="none" xmlns="http://www.w3.org/2000/svg">
<g id="096-twitter" clip-path="url(#clip0_0_663)">
<path id="Vector" d="M18.9191 5.9275C19.7325 5.35 20.4166 4.62917 20.9741 3.79917V3.79833C20.23 4.12417 19.4383 4.34083 18.6116 4.44583C19.4616 3.93833 20.1108 3.14083 20.4158 2.18C19.6233 2.6525 18.7483 2.98583 17.8158 3.1725C17.0633 2.37083 15.9908 1.875 14.8208 1.875C12.5508 1.875 10.7233 3.7175 10.7233 5.97583C10.7233 6.30083 10.7508 6.61333 10.8183 6.91083C7.40996 6.74417 4.39329 5.11083 2.36662 2.62167C2.01329 3.23583 1.80495 3.93833 1.80495 4.69417C1.80495 6.11417 2.53579 7.3725 3.62662 8.10167C2.96745 8.08917 2.32162 7.8975 1.77412 7.59667V7.64167C1.77412 9.63417 3.19495 11.2892 5.05912 11.6708C4.72495 11.7625 4.36162 11.8058 3.98412 11.8058C3.72162 11.8058 3.45662 11.7908 3.20829 11.7358C3.73912 13.3592 5.24745 14.5533 7.03912 14.5925C5.64412 15.6833 3.87245 16.3408 1.95495 16.3408C1.61912 16.3408 1.29662 16.3258 0.974121 16.285C2.79079 17.4558 4.94245 18.125 7.26412 18.125C14.5 18.125 19.2158 12.0883 18.9191 5.9275Z" fill="#DF6951"/>
</g>
<defs>
<clipPath id="clip0_0_663">
<rect width="20" height="20" fill="white" transform="translate(0.974121)"/>
</clipPath>
</defs>
</svg>
