<svg width="21" height="20" viewBox="0 0 21 20" fill="none" xmlns="http://www.w3.org/2000/svg">
<g id="097-twoo" clip-path="url(#clip0_0_665)">
<path id="Vector" d="M9.39178 14.0984C9.44512 14.0534 9.49928 14.0067 9.54928 13.9576C6.76512 16.6892 2.22512 15.4142 1.16095 11.5617V11.5559C-0.266549 6.31422 5.75262 2.33256 9.54762 5.99922C9.62678 6.08339 14.8693 11.6742 14.536 11.3184H14.551C15.3335 12.1251 16.4651 12.0367 17.1385 11.3317C17.8626 10.5751 17.8885 9.34006 17.1776 8.57089C16.0551 7.27839 13.851 8.24422 14.0618 10.1601L12.8001 8.87506L11.3368 7.47589C11.6385 6.87672 12.0343 6.35256 12.5301 5.89922C12.4768 5.94506 12.4226 5.99256 12.3726 6.04006C15.1676 3.29839 19.7043 4.60339 20.761 8.43922V8.44422C22.1918 13.6851 16.166 17.6667 12.3743 14.0001C12.2968 13.9167 7.05762 8.29089 7.38928 8.64756L7.38595 8.63506C7.37262 8.63506 7.37262 8.62256 7.37262 8.62256C6.55095 7.77506 5.43678 7.90256 4.78512 8.59672C4.06012 9.35339 4.03512 10.5884 4.74762 11.3459C5.82095 12.6084 8.07262 11.6726 7.86095 9.71839C7.94262 9.80256 10.7685 12.7034 10.5885 12.5192C10.131 13.4317 9.61928 13.8509 9.39178 14.0984Z" fill="#DF6951"/>
</g>
<defs>
<clipPath id="clip0_0_665">
<rect width="20" height="20" fill="white" transform="translate(0.960938)"/>
</clipPath>
</defs>
</svg>
