<svg width="47" height="48" viewBox="0 0 47 48" fill="none" xmlns="http://www.w3.org/2000/svg">
<g id="Group 12">
<rect id="Rectangle 21" width="47" height="48" rx="13" fill="#F15A2B"/>
<g id="water-sport 1">
<path id="Vector" d="M32.8184 31.929C32.3682 31.9382 31.926 31.8094 31.5512 31.5599C31.2723 31.3777 30.9462 31.2806 30.613 31.2806C30.2797 31.2806 29.9537 31.3777 29.6747 31.5599C29.2961 31.801 28.8566 31.929 28.4077 31.929C27.9589 31.929 27.5194 31.801 27.1408 31.5599C26.8618 31.3775 26.5357 31.2803 26.2023 31.2803C25.869 31.2803 25.5429 31.3775 25.2639 31.5599C24.8853 31.801 24.4458 31.929 23.9969 31.929C23.5481 31.929 23.1086 31.801 22.7299 31.5599C22.4512 31.3776 22.1253 31.2805 21.7922 31.2805C21.459 31.2805 21.1331 31.3776 20.8544 31.5599C20.5111 31.7881 20.1105 31.9149 19.6985 31.9258L19.6758 31.2771C19.9801 31.2699 20.2757 31.1736 20.5258 31.0002C20.9044 30.7592 21.3438 30.6312 21.7925 30.6312C22.2412 30.6312 22.6806 30.7592 23.0591 31.0002C23.3381 31.1825 23.6641 31.2796 23.9974 31.2796C24.3307 31.2796 24.6567 31.1825 24.9357 31.0002C25.3143 30.7589 25.754 30.6308 26.203 30.6308C26.6519 30.6308 27.0916 30.7589 27.4703 31.0002C27.7492 31.1825 28.0753 31.2796 28.4085 31.2796C28.7418 31.2796 29.0679 31.1825 29.3468 31.0002C29.7255 30.7592 30.165 30.6312 30.6138 30.6312C31.0626 30.6312 31.5021 30.7592 31.8808 31.0002C32.1604 31.1829 32.4872 31.2803 32.8213 31.2803C33.1554 31.2803 33.4822 31.1829 33.7618 31.0002C34.1362 30.7514 34.5776 30.6228 35.027 30.6317V31.2804C34.6924 31.2712 34.3636 31.369 34.0884 31.5596C33.7127 31.8095 33.2695 31.9384 32.8184 31.929Z" fill="white"/>
<path id="Vector_2" d="M15.1785 31.9287C14.7285 31.938 14.2864 31.8092 13.9117 31.5596C13.6366 31.3689 13.3078 31.2709 12.9731 31.2801V30.6314C13.4233 30.6221 13.8655 30.7509 14.2403 31.0005C14.5153 31.1913 14.844 31.2892 15.1785 31.2801C15.5133 31.2893 15.8421 31.1912 16.1171 31.0002C16.4911 30.7507 16.9326 30.622 17.382 30.6314C17.8205 30.6216 18.2518 30.7444 18.6193 30.9839L18.2921 31.5437C18.0236 31.3631 17.7054 31.2709 17.382 31.2801C17.0487 31.2711 16.7212 31.3688 16.4473 31.559C16.0722 31.8093 15.6294 31.9383 15.1785 31.9287Z" fill="white"/>
<path id="Vector_3" d="M32.8195 29.6581C32.3691 29.6673 31.9266 29.5386 31.5514 29.2891C31.2722 29.1066 30.9459 29.0094 30.6123 29.0094C30.2788 29.0094 29.9525 29.1066 29.6733 29.2891C29.2947 29.53 28.8552 29.658 28.4064 29.658C27.9577 29.658 27.5182 29.53 27.1396 29.2891C26.8608 29.1067 26.5349 29.0096 26.2017 29.0096C25.8685 29.0096 25.5426 29.1067 25.2637 29.2891C24.8852 29.5301 24.4457 29.6582 23.9969 29.6582C23.5481 29.6582 23.1087 29.5301 22.7301 29.2891C22.4513 29.1067 22.1253 29.0096 21.7922 29.0096C21.459 29.0096 21.1331 29.1067 20.8542 29.2891C20.4796 29.5387 20.0375 29.6675 19.5874 29.6581C19.1373 29.6675 18.6952 29.5387 18.3206 29.2891C18.0457 29.0983 17.7171 29.0004 17.3827 29.0095C17.0483 29.0004 16.7198 29.0984 16.445 29.2891C16.071 29.5384 15.6296 29.6672 15.1802 29.6581C14.73 29.6675 14.2878 29.5387 13.913 29.2891C13.6376 29.0979 13.3083 29 12.9731 29.0095V28.3608C13.4232 28.3515 13.8653 28.4804 14.24 28.7299C14.5151 28.9207 14.8439 29.0186 15.1786 29.0095C15.5129 29.0186 15.8414 28.9206 16.1162 28.7299C16.4902 28.4806 16.9316 28.3518 17.381 28.3608C17.8314 28.3513 18.2739 28.4801 18.6488 28.7299C18.9238 28.9207 19.2525 29.0187 19.5871 29.0095C19.9216 29.0187 20.2504 28.9207 20.5254 28.7299C20.9039 28.4888 21.3434 28.3608 21.7922 28.3608C22.241 28.3608 22.6804 28.4888 23.059 28.7299C23.3379 28.9123 23.6639 29.0094 23.9971 29.0094C24.3303 29.0094 24.6563 28.9123 24.9352 28.7299C25.3137 28.4888 25.7532 28.3608 26.202 28.3608C26.6508 28.3608 27.0903 28.4888 27.4688 28.7299C27.7477 28.9123 28.0737 29.0094 28.4069 29.0094C28.7402 29.0094 29.0662 28.9123 29.345 28.7299C29.724 28.4889 30.1637 28.3609 30.6128 28.3609C31.0619 28.3609 31.5017 28.4889 31.8806 28.7299C32.16 28.9123 32.4864 29.0093 32.82 29.0093C33.1536 29.0093 33.48 28.9123 33.7594 28.7299C34.1345 28.4805 34.5769 28.3517 35.0272 28.3608V29.0095C34.6919 29 34.3623 29.098 34.0867 29.2891C33.7118 29.5384 33.2696 29.6671 32.8195 29.6581Z" fill="white"/>
<path id="Vector_4" d="M32.8184 27.3885C32.3683 27.3977 31.9261 27.2689 31.5513 27.0194C31.2762 26.8287 30.9473 26.7308 30.6127 26.7399C30.3671 26.7314 30.1232 26.7838 29.9028 26.8923L29.6167 26.3085C29.9263 26.1568 30.268 26.0819 30.6127 26.0903C31.0634 26.0811 31.5061 26.2102 31.8811 26.4603C32.1608 26.6431 32.4876 26.7405 32.8217 26.7405C33.1558 26.7405 33.4826 26.6431 33.7622 26.4603C34.1364 26.2114 34.5777 26.0826 35.0271 26.0912V26.7399C34.6925 26.7307 34.3637 26.8285 34.0885 27.0191C33.7128 27.269 33.2696 27.3979 32.8184 27.3885Z" fill="white"/>
<path id="Vector_5" d="M28.4045 27.3884C27.9551 27.3979 27.5136 27.2692 27.1396 27.0197C26.8607 26.8372 26.5345 26.74 26.2012 26.74C25.8679 26.74 25.5417 26.8372 25.2628 27.0197C24.8842 27.2607 24.4446 27.3888 23.9958 27.3888C23.547 27.3888 23.1074 27.2607 22.7288 27.0197C22.4499 26.8373 22.1238 26.7402 21.7906 26.7402C21.4573 26.7402 21.1312 26.8373 20.8523 27.0197C20.4777 27.2689 20.0359 27.3975 19.5861 27.3884C19.1361 27.3978 18.6939 27.2689 18.3193 27.0194C18.0442 26.8286 17.7154 26.7307 17.3807 26.7398C17.0474 26.7308 16.7199 26.8285 16.446 27.0187C16.0713 27.2687 15.6289 27.3978 15.1786 27.3884C14.7285 27.3978 14.2864 27.2689 13.9117 27.0194C13.6366 26.8286 13.3078 26.7307 12.9731 26.7398V26.0912C13.4233 26.0818 13.8655 26.2106 14.2403 26.4602C14.5153 26.651 14.844 26.749 15.1786 26.7398C15.5133 26.749 15.8421 26.6509 16.1171 26.4599C16.4911 26.2104 16.9326 26.0817 17.382 26.0912C17.8321 26.0819 18.2742 26.2107 18.6488 26.4602C18.9238 26.651 19.2525 26.749 19.5871 26.7398C19.9217 26.7489 20.2506 26.651 20.5257 26.4602C20.9043 26.2192 21.3438 26.0911 21.7927 26.0911C22.2415 26.0911 22.681 26.2192 23.0596 26.4602C23.3386 26.6426 23.6646 26.7397 23.9979 26.7397C24.3312 26.7397 24.6572 26.6426 24.9362 26.4602C25.3148 26.219 25.7545 26.0909 26.2035 26.0909C26.6524 26.0909 27.0921 26.219 27.4708 26.4602C27.7565 26.6524 28.0953 26.7501 28.4395 26.7395C28.4646 26.7398 28.4896 26.7385 28.5144 26.7356L28.6007 27.3784C28.5356 27.386 28.4701 27.3893 28.4045 27.3884Z" fill="white"/>
<path id="Vector_6" d="M32.8195 25.1181C32.3691 25.1273 31.9266 24.9985 31.5514 24.749C31.2722 24.5666 30.9459 24.4694 30.6123 24.4694C30.2788 24.4694 29.9525 24.5666 29.6733 24.749C29.2947 24.99 28.8552 25.118 28.4064 25.118C27.9577 25.118 27.5182 24.99 27.1396 24.749C26.8608 24.5667 26.5349 24.4696 26.2017 24.4696C25.8685 24.4696 25.5426 24.5667 25.2637 24.749C24.8852 24.9901 24.4457 25.1181 23.9969 25.1181C23.5481 25.1181 23.1087 24.9901 22.7301 24.749C22.4513 24.5667 22.1253 24.4696 21.7922 24.4696C21.459 24.4696 21.1331 24.5667 20.8542 24.749C20.4796 24.9986 20.0375 25.1275 19.5874 25.1181C19.1373 25.1275 18.6952 24.9986 18.3206 24.749C18.0457 24.5583 17.7171 24.4603 17.3827 24.4695C17.0483 24.4604 16.7198 24.5583 16.445 24.749C16.071 24.9984 15.6296 25.1272 15.1802 25.1181C14.73 25.1275 14.2878 24.9986 13.913 24.749C13.6376 24.5579 13.3083 24.4599 12.9731 24.4695V23.8208C13.4232 23.8115 13.8653 23.9403 14.24 24.1899C14.5151 24.3806 14.8439 24.4786 15.1786 24.4695C15.5129 24.4785 15.8414 24.3806 16.1162 24.1899C16.4902 23.9406 16.9316 23.8118 17.381 23.8208C17.8314 23.8112 18.2739 23.9401 18.6488 24.1899C18.9238 24.3807 19.2525 24.4786 19.5871 24.4695C19.9216 24.4786 20.2504 24.3807 20.5254 24.1899C20.9039 23.9488 21.3434 23.8207 21.7922 23.8207C22.241 23.8207 22.6804 23.9488 23.059 24.1899C23.3379 24.3723 23.6639 24.4694 23.9971 24.4694C24.3303 24.4694 24.6563 24.3723 24.9352 24.1899C25.3137 23.9488 25.7532 23.8207 26.202 23.8207C26.6508 23.8207 27.0903 23.9488 27.4688 24.1899C27.7477 24.3723 28.0737 24.4694 28.4069 24.4694C28.7402 24.4694 29.0662 24.3723 29.345 24.1899C29.724 23.9489 30.1637 23.8209 30.6128 23.8209C31.0619 23.8209 31.5017 23.9489 31.8806 24.1899C32.16 24.3722 32.4864 24.4693 32.82 24.4693C33.1536 24.4693 33.48 24.3722 33.7594 24.1899C34.1345 23.9405 34.5769 23.8117 35.0272 23.8208V24.4695C34.6919 24.46 34.3623 24.5579 34.0867 24.749C33.7118 24.9983 33.2696 25.1271 32.8195 25.1181Z" fill="white"/>
<path id="Vector_7" d="M28.1977 24.8428L27.5857 24.6281C27.7433 24.1753 27.8077 23.6952 27.775 23.2168C27.7423 22.7384 27.6131 22.2716 27.3953 21.8444L25.1675 17.482C25.1455 17.4389 25.1335 17.3914 25.1322 17.3431C25.1309 17.2947 25.1404 17.2467 25.1601 17.2025C25.1798 17.1583 25.2091 17.1191 25.2459 17.0877C25.2827 17.0563 25.3261 17.0336 25.3728 17.0211L29.8125 15.8373C29.9572 15.7995 30.0811 15.706 30.1572 15.5773C30.2333 15.4486 30.2556 15.2951 30.2191 15.15C30.1826 15.005 30.0903 14.8803 29.9622 14.803C29.8342 14.7257 29.6809 14.702 29.5355 14.7372L24.1621 16.0215C24.0473 16.0487 23.9402 16.1019 23.8492 16.1771C23.7582 16.2523 23.6857 16.3474 23.6374 16.4551C23.5891 16.5627 23.5662 16.6801 23.5705 16.7981C23.5748 16.916 23.6063 17.0314 23.6623 17.1353L25.258 20.0996C25.2985 20.1749 25.3076 20.2632 25.2833 20.3452C25.259 20.4272 25.2033 20.4963 25.1283 20.5374L23.0688 21.6726L22.7559 21.1043L24.5338 20.1242L23.0919 17.4427C22.9887 17.2513 22.931 17.0387 22.9231 16.8214C22.9152 16.6041 22.9574 16.3879 23.0465 16.1895C23.1355 15.9911 23.269 15.8159 23.4366 15.6773C23.6041 15.5387 23.8014 15.4406 24.0129 15.3904L29.3838 14.1064C29.6964 14.0274 30.0277 14.0758 30.3046 14.241C30.5816 14.4063 30.7816 14.6748 30.8606 14.9874C30.9396 15.3001 30.8911 15.6313 30.7259 15.9083C30.5607 16.1852 30.2922 16.3852 29.9795 16.4642L25.9274 17.5442L27.9733 21.549C28.2309 22.0545 28.3836 22.6069 28.4221 23.173C28.4607 23.739 28.3844 24.307 28.1977 24.8428Z" fill="white"/>
<path id="Vector_8" d="M21.6224 21.7343L17.6812 23.906L17.994 24.4738L21.9353 22.3021L21.6224 21.7343Z" fill="white"/>
<path id="Vector_9" d="M31.1356 22.6852C30.6545 22.6852 30.1842 22.5425 29.7842 22.2752C29.3842 22.008 29.0724 21.6281 28.8883 21.1836C28.7042 20.7391 28.656 20.25 28.7499 19.7782C28.8437 19.3064 29.0754 18.8729 29.4156 18.5328C29.7557 18.1926 30.1892 17.9609 30.661 17.8671C31.1329 17.7732 31.6219 17.8214 32.0664 18.0055C32.5109 18.1896 32.8908 18.5013 33.158 18.9014C33.4253 19.3014 33.568 19.7717 33.568 20.2527C33.5673 20.8977 33.3108 21.516 32.8548 21.972C32.3988 22.428 31.7805 22.6845 31.1356 22.6852ZM31.1356 18.469C30.7828 18.469 30.4379 18.5736 30.1445 18.7696C29.8512 18.9656 29.6226 19.2442 29.4876 19.5701C29.3525 19.8961 29.3172 20.2547 29.386 20.6007C29.4549 20.9468 29.6248 21.2646 29.8742 21.5141C30.1237 21.7635 30.4415 21.9334 30.7876 22.0023C31.1336 22.0711 31.4922 22.0358 31.8182 21.9007C32.1441 21.7657 32.4227 21.5371 32.6187 21.2438C32.8147 20.9504 32.9193 20.6055 32.9193 20.2527C32.9187 19.7798 32.7306 19.3265 32.3962 18.9921C32.0618 18.6577 31.6085 18.4696 31.1356 18.469Z" fill="white"/>
</g>
</g>
</svg>
